<?xml version="1.0" encoding="UTF-8"?>
<!DOCTYPE svg PUBLIC "-//W3C//DTD SVG 1.1//EN" "http://www.w3.org/Graphics/SVG/1.1/DTD/svg11.dtd">
<svg width="160mm" height="90mm" viewBox="0 0 16000 9000" version="1.1" baseProfile="tiny" xmlns="http://www.w3.org/2000/svg" stroke-width="28.222" stroke-linejoin="round" xml:space="preserve">
 <path fill="rgb(255,255,255)" stroke="none" d="M 8016,8999 L 16,8999 16,0 16015,0 16015,8999 8016,8999 Z"/>
 <path fill="none" stroke="rgb(179,179,179)" stroke-linejoin="round" d="M 8977,6358 L 2259,6358 2259,379 15695,379 15695,6358 8977,6358 Z"/>
 <path fill="none" stroke="rgb(179,179,179)" stroke-linejoin="round" d="M 15694,6357 L 2259,6357"/>
 <path fill="none" stroke="rgb(179,179,179)" stroke-linejoin="round" d="M 15694,5360 L 2259,5360"/>
 <path fill="none" stroke="rgb(179,179,179)" stroke-linejoin="round" d="M 15694,4364 L 2259,4364"/>
 <path fill="none" stroke="rgb(179,179,179)" stroke-linejoin="round" d="M 15694,3368 L 2259,3368"/>
 <path fill="none" stroke="rgb(179,179,179)" stroke-linejoin="round" d="M 15694,2371 L 2259,2371"/>
 <path fill="none" stroke="rgb(179,179,179)" stroke-linejoin="round" d="M 15694,1374 L 2259,1374"/>
 <path fill="none" stroke="rgb(179,179,179)" stroke-linejoin="round" d="M 15694,378 L 2259,378"/>
 <path fill="none" stroke="rgb(221,221,221)" stroke-linejoin="round" d="M 15694,5858 L 2259,5858"/>
 <path fill="none" stroke="rgb(221,221,221)" stroke-linejoin="round" d="M 15694,4862 L 2259,4862"/>
 <path fill="none" stroke="rgb(221,221,221)" stroke-linejoin="round" d="M 15694,3866 L 2259,3866"/>
 <path fill="none" stroke="rgb(221,221,221)" stroke-linejoin="round" d="M 15694,2869 L 2259,2869"/>
 <path fill="none" stroke="rgb(221,221,221)" stroke-linejoin="round" d="M 15694,1873 L 2259,1873"/>
 <path fill="none" stroke="rgb(221,221,221)" stroke-linejoin="round" d="M 15694,876 L 2259,876"/>
 <path fill="none" stroke="rgb(179,179,179)" stroke-linejoin="round" d="M 2259,6507 L 2259,6357"/>
 <path fill="none" stroke="rgb(179,179,179)" stroke-linejoin="round" d="M 2259,6507 L 2259,6357"/>
 <path fill="none" stroke="rgb(179,179,179)" stroke-linejoin="round" d="M 15694,6507 L 15694,6357"/>
 <path fill="none" stroke="rgb(179,179,179)" stroke-linejoin="round" d="M 15694,6507 L 15694,6357"/>
 <path fill="none" stroke="rgb(179,179,179)" stroke-linejoin="round" d="M 2259,6357 L 15694,6357"/>
 <path fill="none" stroke="rgb(179,179,179)" stroke-linejoin="round" d="M 2109,6357 L 2259,6357"/>
 <path fill="none" stroke="rgb(179,179,179)" stroke-linejoin="round" d="M 2109,6357 L 2259,6357"/>
 <path fill="none" stroke="rgb(179,179,179)" stroke-linejoin="round" d="M 2109,5360 L 2259,5360"/>
 <path fill="none" stroke="rgb(179,179,179)" stroke-linejoin="round" d="M 2109,5360 L 2259,5360"/>
 <path fill="none" stroke="rgb(179,179,179)" stroke-linejoin="round" d="M 2109,4364 L 2259,4364"/>
 <path fill="none" stroke="rgb(179,179,179)" stroke-linejoin="round" d="M 2109,4364 L 2259,4364"/>
 <path fill="none" stroke="rgb(179,179,179)" stroke-linejoin="round" d="M 2109,3368 L 2259,3368"/>
 <path fill="none" stroke="rgb(179,179,179)" stroke-linejoin="round" d="M 2109,3368 L 2259,3368"/>
 <path fill="none" stroke="rgb(179,179,179)" stroke-linejoin="round" d="M 2109,2371 L 2259,2371"/>
 <path fill="none" stroke="rgb(179,179,179)" stroke-linejoin="round" d="M 2109,2371 L 2259,2371"/>
 <path fill="none" stroke="rgb(179,179,179)" stroke-linejoin="round" d="M 2109,1374 L 2259,1374"/>
 <path fill="none" stroke="rgb(179,179,179)" stroke-linejoin="round" d="M 2109,1374 L 2259,1374"/>
 <path fill="none" stroke="rgb(179,179,179)" stroke-linejoin="round" d="M 2109,378 L 2259,378"/>
 <path fill="none" stroke="rgb(179,179,179)" stroke-linejoin="round" d="M 2109,378 L 2259,378"/>
 <path fill="none" stroke="rgb(179,179,179)" stroke-linejoin="round" d="M 2259,6357 L 2259,378"/>
 <path fill="rgb(131,202,255)" stroke="none" d="M 2838,6357 L 3996,6357 3996,1849 2838,1849 2838,6357 Z"/>
 <path fill="rgb(51,51,255)" stroke="none" d="M 4228,6357 L 5386,6357 5386,4121 4228,4121 4228,6357 Z"/>
 <path fill="rgb(0,69,134)" stroke="none" d="M 5618,6357 L 6776,6357 6776,4505 5618,4505 5618,6357 Z"/>
 <path fill="rgb(153,255,102)" stroke="none" d="M 7008,6357 L 8165,6357 8165,2508 7008,2508 7008,6357 Z"/>
 <path fill="rgb(0,153,0)" stroke="none" d="M 8397,6357 L 9555,6357 9555,3897 8397,3897 8397,6357 Z"/>
 <path fill="rgb(0,102,0)" stroke="none" d="M 9787,6357 L 10945,6357 10945,4581 9787,4581 9787,6357 Z"/>
 <path fill="rgb(255,0,0)" stroke="none" d="M 11177,6357 L 12335,6357 12335,1978 11177,1978 11177,6357 Z"/>
 <path fill="rgb(204,0,0)" stroke="none" d="M 12567,6357 L 13725,6357 13725,1362 12567,1362 12567,6357 Z"/>
 <path fill="rgb(153,0,0)" stroke="none" d="M 13957,6357 L 15115,6357 15115,4292 13957,4292 13957,6357 Z"/>
 <text class="TextShape"><tspan class="TextParagraph" font-family="Liberation Sans, sans-serif" font-size="353px" font-weight="400"><tspan class="TextPosition" x="1348" y="6478"/><tspan class="TextPosition" x="1348" y="6478"><tspan fill="rgb(0,0,0)" stroke="none">0.92</tspan></tspan></tspan></text>
 <text class="TextShape"><tspan class="TextParagraph" font-family="Liberation Sans, sans-serif" font-size="353px" font-weight="400"><tspan class="TextPosition" x="1348" y="5481"/><tspan class="TextPosition" x="1348" y="5481"><tspan fill="rgb(0,0,0)" stroke="none">0.94</tspan></tspan></tspan></text>
 <text class="TextShape"><tspan class="TextParagraph" font-family="Liberation Sans, sans-serif" font-size="353px" font-weight="400"><tspan class="TextPosition" x="1348" y="4484"/><tspan class="TextPosition" x="1348" y="4484"><tspan fill="rgb(0,0,0)" stroke="none">0.96</tspan></tspan></tspan></text>
 <text class="TextShape"><tspan class="TextParagraph" font-family="Liberation Sans, sans-serif" font-size="353px" font-weight="400"><tspan class="TextPosition" x="1348" y="3488"/><tspan class="TextPosition" x="1348" y="3488"><tspan fill="rgb(0,0,0)" stroke="none">0.98</tspan></tspan></tspan></text>
 <text class="TextShape"><tspan class="TextParagraph" font-family="Liberation Sans, sans-serif" font-size="353px" font-weight="400"><tspan class="TextPosition" x="1348" y="2491"/><tspan class="TextPosition" x="1348" y="2491"><tspan fill="rgb(0,0,0)" stroke="none">1.00</tspan></tspan></tspan></text>
 <text class="TextShape"><tspan class="TextParagraph" font-family="Liberation Sans, sans-serif" font-size="353px" font-weight="400"><tspan class="TextPosition" x="1348" y="1494"/><tspan class="TextPosition" x="1348" y="1494"><tspan fill="rgb(0,0,0)" stroke="none">1.02</tspan></tspan></tspan></text>
 <text class="TextShape"><tspan class="TextParagraph" font-family="Liberation Sans, sans-serif" font-size="353px" font-weight="400"><tspan class="TextPosition" x="1348" y="498"/><tspan class="TextPosition" x="1348" y="498"><tspan fill="rgb(0,0,0)" stroke="none">1.04</tspan></tspan></tspan></text>
 <text class="TextShape"><tspan class="TextParagraph" font-family="Liberation Sans, sans-serif" font-size="353px" font-weight="400"><tspan class="TextPosition" x="3086" y="1671"/><tspan class="TextPosition" x="3086" y="1671"><tspan fill="rgb(0,0,0)" stroke="none">1.01</tspan></tspan></tspan></text>
 <text class="TextShape"><tspan class="TextParagraph" font-family="Liberation Sans, sans-serif" font-size="353px" font-weight="400"><tspan class="TextPosition" x="4476" y="3943"/><tspan class="TextPosition" x="4476" y="3943"><tspan fill="rgb(0,0,0)" stroke="none">0.96</tspan></tspan></tspan></text>
 <text class="TextShape"><tspan class="TextParagraph" font-family="Liberation Sans, sans-serif" font-size="353px" font-weight="400"><tspan class="TextPosition" x="5866" y="4328"/><tspan class="TextPosition" x="5866" y="4328"><tspan fill="rgb(0,0,0)" stroke="none">0.96</tspan></tspan></tspan></text>
 <text class="TextShape"><tspan class="TextParagraph" font-family="Liberation Sans, sans-serif" font-size="353px" font-weight="400"><tspan class="TextPosition" x="7256" y="2330"/><tspan class="TextPosition" x="7256" y="2330"><tspan fill="rgb(0,0,0)" stroke="none">1.00</tspan></tspan></tspan></text>
 <text class="TextShape"><tspan class="TextParagraph" font-family="Liberation Sans, sans-serif" font-size="353px" font-weight="400"><tspan class="TextPosition" x="8646" y="3719"/><tspan class="TextPosition" x="8646" y="3719"><tspan fill="rgb(0,0,0)" stroke="none">0.97</tspan></tspan></tspan></text>
 <text class="TextShape"><tspan class="TextParagraph" font-family="Liberation Sans, sans-serif" font-size="353px" font-weight="400"><tspan class="TextPosition" x="10036" y="4404"/><tspan class="TextPosition" x="10036" y="4404"><tspan fill="rgb(0,0,0)" stroke="none">0.96</tspan></tspan></tspan></text>
 <text class="TextShape"><tspan class="TextParagraph" font-family="Liberation Sans, sans-serif" font-size="353px" font-weight="400"><tspan class="TextPosition" x="11426" y="1800"/><tspan class="TextPosition" x="11426" y="1800"><tspan fill="rgb(0,0,0)" stroke="none">1.01</tspan></tspan></tspan></text>
 <text class="TextShape"><tspan class="TextParagraph" font-family="Liberation Sans, sans-serif" font-size="353px" font-weight="400"><tspan class="TextPosition" x="12816" y="1184"/><tspan class="TextPosition" x="12816" y="1184"><tspan fill="rgb(0,0,0)" stroke="none">1.02</tspan></tspan></tspan></text>
 <text class="TextShape"><tspan class="TextParagraph" font-family="Liberation Sans, sans-serif" font-size="353px" font-weight="400"><tspan class="TextPosition" x="14206" y="4114"/><tspan class="TextPosition" x="14206" y="4114"><tspan fill="rgb(0,0,0)" stroke="none">0.96</tspan></tspan></tspan></text>
 <path fill="rgb(51,153,255)" stroke="none" d="M 3117,8122 L 3012,8122 3012,7911 3223,7911 3223,8122 3117,8122 Z"/>
 <path fill="rgb(51,51,255)" stroke="none" d="M 5091,8122 L 4986,8122 4986,7911 5197,7911 5197,8122 5091,8122 Z"/>
 <path fill="rgb(0,69,134)" stroke="none" d="M 7065,8122 L 6960,8122 6960,7911 7171,7911 7171,8122 7065,8122 Z"/>
 <path fill="rgb(153,255,102)" stroke="none" d="M 9224,8122 L 9118,8122 9118,7911 9329,7911 9329,8122 9224,8122 Z"/>
 <path fill="rgb(0,153,0)" stroke="none" d="M 11383,8122 L 11277,8122 11277,7911 11488,7911 11488,8122 11383,8122 Z"/>
 <path fill="rgb(0,102,0)" stroke="none" d="M 3117,8620 L 3012,8620 3012,8409 3223,8409 3223,8620 3117,8620 Z"/>
 <path fill="rgb(255,0,0)" stroke="none" d="M 5091,8620 L 4986,8620 4986,8409 5197,8409 5197,8620 5091,8620 Z"/>
 <path fill="rgb(204,0,0)" stroke="none" d="M 7065,8620 L 6960,8620 6960,8409 7171,8409 7171,8620 7065,8620 Z"/>
 <path fill="rgb(153,0,0)" stroke="none" d="M 9224,8620 L 9118,8620 9118,8409 9329,8409 9329,8620 9224,8620 Z"/>
 <text class="TextShape"><tspan class="TextParagraph" font-family="Liberation Sans, sans-serif" font-size="353px" font-weight="400"><tspan class="TextPosition" x="3323" y="8136"/><tspan class="TextPosition" x="3323" y="8136"><tspan fill="rgb(0,0,0)" stroke="none">48-12(1)</tspan></tspan></tspan></text>
 <text class="TextShape"><tspan class="TextParagraph" font-family="Liberation Sans, sans-serif" font-size="353px" font-weight="400"><tspan class="TextPosition" x="5297" y="8136"/><tspan class="TextPosition" x="5297" y="8136"><tspan fill="rgb(0,0,0)" stroke="none">100-12(1)</tspan></tspan></tspan></text>
 <text class="TextShape"><tspan class="TextParagraph" font-family="Liberation Sans, sans-serif" font-size="353px" font-weight="400"><tspan class="TextPosition" x="7271" y="8136"/><tspan class="TextPosition" x="7271" y="8136"><tspan fill="rgb(0,0,0)" stroke="none">200-12(1)</tspan></tspan></tspan></text>
 <text class="TextShape"><tspan class="TextParagraph" font-family="Liberation Sans, sans-serif" font-size="353px" font-weight="400"><tspan class="TextPosition" x="9429" y="8136"/><tspan class="TextPosition" x="9429" y="8136"><tspan fill="rgb(0,0,0)" stroke="none">48-12(6)</tspan></tspan></tspan></text>
 <text class="TextShape"><tspan class="TextParagraph" font-family="Liberation Sans, sans-serif" font-size="353px" font-weight="400"><tspan class="TextPosition" x="11588" y="8136"/><tspan class="TextPosition" x="11588" y="8136"><tspan fill="rgb(0,0,0)" stroke="none">100-12(6)</tspan></tspan></tspan></text>
 <text class="TextShape"><tspan class="TextParagraph" font-family="Liberation Sans, sans-serif" font-size="353px" font-weight="400"><tspan class="TextPosition" x="3323" y="8634"/><tspan class="TextPosition" x="3323" y="8634"><tspan fill="rgb(0,0,0)" stroke="none">200-12(6)</tspan></tspan></tspan></text>
 <text class="TextShape"><tspan class="TextParagraph" font-family="Liberation Sans, sans-serif" font-size="353px" font-weight="400"><tspan class="TextPosition" x="5297" y="8634"/><tspan class="TextPosition" x="5297" y="8634"><tspan fill="rgb(0,0,0)" stroke="none">48-12(12)</tspan></tspan></tspan></text>
 <text class="TextShape"><tspan class="TextParagraph" font-family="Liberation Sans, sans-serif" font-size="353px" font-weight="400"><tspan class="TextPosition" x="7271" y="8634"/><tspan class="TextPosition" x="7271" y="8634"><tspan fill="rgb(0,0,0)" stroke="none">100-12(12)</tspan></tspan></tspan></text>
 <text class="TextShape"><tspan class="TextParagraph" font-family="Liberation Sans, sans-serif" font-size="353px" font-weight="400"><tspan class="TextPosition" x="9429" y="8634"/><tspan class="TextPosition" x="9429" y="8634"><tspan fill="rgb(0,0,0)" stroke="none">200-12(12)</tspan></tspan></tspan></text>
 <text class="TextShape"><tspan class="TextParagraph" font-family="Liberation Sans, sans-serif" font-size="318px" font-weight="400"><tspan class="TextPosition" x="8230" y="7124"/><tspan class="TextPosition" x="8230" y="7124"><tspan fill="rgb(0,0,0)" stroke="none">Test</tspan></tspan></tspan></text>
 <text class="TextShape" transform="translate(853,6027) rotate(-90) translate(-853,-6027)"><tspan class="TextParagraph" font-family="Liberation Sans, sans-serif" font-size="318px" font-weight="400"><tspan class="TextPosition" x="853" y="6027"/><tspan class="TextPosition" x="853" y="6027"><tspan fill="rgb(0,0,0)" stroke="none">MSE ratios of benchmarked R model</tspan></tspan></tspan></text>
</svg>