<?xml version="1.0" encoding="UTF-8"?>
<!DOCTYPE svg PUBLIC "-//W3C//DTD SVG 1.1//EN" "http://www.w3.org/Graphics/SVG/1.1/DTD/svg11.dtd">
<svg width="160mm" height="90mm" viewBox="0 0 16000 9000" version="1.1" baseProfile="tiny" xmlns="http://www.w3.org/2000/svg" stroke-width="28.222" stroke-linejoin="round" xml:space="preserve">
 <path fill="rgb(255,255,255)" stroke="none" d="M 8000,8999 L 0,8999 0,0 15999,0 15999,8999 8000,8999 Z"/>
 <path fill="none" stroke="rgb(179,179,179)" stroke-linejoin="round" d="M 9219,6355 L 2982,6355 2982,378 15456,378 15456,6355 9219,6355 Z"/>
 <path fill="none" stroke="rgb(179,179,179)" stroke-linejoin="round" d="M 15456,6354 L 2982,6354"/>
 <path fill="none" stroke="rgb(179,179,179)" stroke-linejoin="round" d="M 15456,5606 L 2982,5606"/>
 <path fill="none" stroke="rgb(179,179,179)" stroke-linejoin="round" d="M 15456,4859 L 2982,4859"/>
 <path fill="none" stroke="rgb(179,179,179)" stroke-linejoin="round" d="M 15456,4113 L 2982,4113"/>
 <path fill="none" stroke="rgb(179,179,179)" stroke-linejoin="round" d="M 15456,3366 L 2982,3366"/>
 <path fill="none" stroke="rgb(179,179,179)" stroke-linejoin="round" d="M 15456,2618 L 2982,2618"/>
 <path fill="none" stroke="rgb(179,179,179)" stroke-linejoin="round" d="M 15456,1871 L 2982,1871"/>
 <path fill="none" stroke="rgb(179,179,179)" stroke-linejoin="round" d="M 15456,1124 L 2982,1124"/>
 <path fill="none" stroke="rgb(179,179,179)" stroke-linejoin="round" d="M 15456,377 L 2982,377"/>
 <path fill="none" stroke="rgb(221,221,221)" stroke-linejoin="round" d="M 15456,5980 L 2982,5980"/>
 <path fill="none" stroke="rgb(221,221,221)" stroke-linejoin="round" d="M 15456,5233 L 2982,5233"/>
 <path fill="none" stroke="rgb(221,221,221)" stroke-linejoin="round" d="M 15456,4486 L 2982,4486"/>
 <path fill="none" stroke="rgb(221,221,221)" stroke-linejoin="round" d="M 15456,3739 L 2982,3739"/>
 <path fill="none" stroke="rgb(221,221,221)" stroke-linejoin="round" d="M 15456,2992 L 2982,2992"/>
 <path fill="none" stroke="rgb(221,221,221)" stroke-linejoin="round" d="M 15456,2245 L 2982,2245"/>
 <path fill="none" stroke="rgb(221,221,221)" stroke-linejoin="round" d="M 15456,1497 L 2982,1497"/>
 <path fill="none" stroke="rgb(221,221,221)" stroke-linejoin="round" d="M 15456,750 L 2982,750"/>
 <path fill="none" stroke="rgb(179,179,179)" stroke-linejoin="round" d="M 2982,6504 L 2982,6354"/>
 <path fill="none" stroke="rgb(179,179,179)" stroke-linejoin="round" d="M 2982,6504 L 2982,6354"/>
 <path fill="none" stroke="rgb(179,179,179)" stroke-linejoin="round" d="M 15456,6504 L 15456,6354"/>
 <path fill="none" stroke="rgb(179,179,179)" stroke-linejoin="round" d="M 15456,6504 L 15456,6354"/>
 <path fill="none" stroke="rgb(179,179,179)" stroke-linejoin="round" d="M 2982,6354 L 15456,6354"/>
 <path fill="none" stroke="rgb(179,179,179)" stroke-linejoin="round" d="M 2832,6354 L 2982,6354"/>
 <path fill="none" stroke="rgb(179,179,179)" stroke-linejoin="round" d="M 2832,6354 L 2982,6354"/>
 <path fill="none" stroke="rgb(179,179,179)" stroke-linejoin="round" d="M 2832,5606 L 2982,5606"/>
 <path fill="none" stroke="rgb(179,179,179)" stroke-linejoin="round" d="M 2832,5606 L 2982,5606"/>
 <path fill="none" stroke="rgb(179,179,179)" stroke-linejoin="round" d="M 2832,4859 L 2982,4859"/>
 <path fill="none" stroke="rgb(179,179,179)" stroke-linejoin="round" d="M 2832,4859 L 2982,4859"/>
 <path fill="none" stroke="rgb(179,179,179)" stroke-linejoin="round" d="M 2832,4113 L 2982,4113"/>
 <path fill="none" stroke="rgb(179,179,179)" stroke-linejoin="round" d="M 2832,4113 L 2982,4113"/>
 <path fill="none" stroke="rgb(179,179,179)" stroke-linejoin="round" d="M 2832,3366 L 2982,3366"/>
 <path fill="none" stroke="rgb(179,179,179)" stroke-linejoin="round" d="M 2832,3366 L 2982,3366"/>
 <path fill="none" stroke="rgb(179,179,179)" stroke-linejoin="round" d="M 2832,2618 L 2982,2618"/>
 <path fill="none" stroke="rgb(179,179,179)" stroke-linejoin="round" d="M 2832,2618 L 2982,2618"/>
 <path fill="none" stroke="rgb(179,179,179)" stroke-linejoin="round" d="M 2832,1871 L 2982,1871"/>
 <path fill="none" stroke="rgb(179,179,179)" stroke-linejoin="round" d="M 2832,1871 L 2982,1871"/>
 <path fill="none" stroke="rgb(179,179,179)" stroke-linejoin="round" d="M 2832,1124 L 2982,1124"/>
 <path fill="none" stroke="rgb(179,179,179)" stroke-linejoin="round" d="M 2832,1124 L 2982,1124"/>
 <path fill="none" stroke="rgb(179,179,179)" stroke-linejoin="round" d="M 2832,377 L 2982,377"/>
 <path fill="none" stroke="rgb(179,179,179)" stroke-linejoin="round" d="M 2832,377 L 2982,377"/>
 <path fill="none" stroke="rgb(179,179,179)" stroke-linejoin="round" d="M 2982,6354 L 2982,377"/>
 <path fill="rgb(51,153,255)" stroke="none" d="M 3519,6354 L 4595,6354 4595,4362 3519,4362 3519,6354 Z"/>
 <path fill="rgb(51,51,255)" stroke="none" d="M 4810,6354 L 5885,6354 5885,3567 4810,3567 4810,6354 Z"/>
 <path fill="rgb(0,69,134)" stroke="none" d="M 6100,6354 L 7176,6354 7176,3082 6100,3082 6100,6354 Z"/>
 <path fill="rgb(153,255,102)" stroke="none" d="M 7391,6354 L 8465,6354 8465,4027 7391,4027 7391,6354 Z"/>
 <path fill="rgb(0,153,0)" stroke="none" d="M 8680,6354 L 9756,6354 9756,3339 8680,3339 8680,6354 Z"/>
 <path fill="rgb(0,102,0)" stroke="none" d="M 9971,6354 L 11046,6354 11046,1501 9971,1501 9971,6354 Z"/>
 <path fill="rgb(255,0,0)" stroke="none" d="M 11261,6354 L 12337,6354 12337,4171 11261,4171 11261,6354 Z"/>
 <path fill="rgb(204,0,0)" stroke="none" d="M 12552,6354 L 13627,6354 13627,4053 12552,4053 12552,6354 Z"/>
 <path fill="rgb(153,0,0)" stroke="none" d="M 13842,6354 L 14918,6354 14918,1168 13842,1168 13842,6354 Z"/>
 <text class="TextShape"><tspan class="TextParagraph" font-family="Liberation Sans" font-size="353px" font-weight="400"><tspan class="TextPosition" x="1250" y="6475"/><tspan class="TextPosition" x="1250" y="6475"><tspan fill="rgb(0,0,0)" stroke="none">0.00E+00</tspan></tspan></tspan></text>
 <text class="TextShape"><tspan class="TextParagraph" font-family="Liberation Sans" font-size="353px" font-weight="400"><tspan class="TextPosition" x="1250" y="5727"/><tspan class="TextPosition" x="1250" y="5727"><tspan fill="rgb(0,0,0)" stroke="none">5.00E+06</tspan></tspan></tspan></text>
 <text class="TextShape"><tspan class="TextParagraph" font-family="Liberation Sans" font-size="353px" font-weight="400"><tspan class="TextPosition" x="1250" y="4980"/><tspan class="TextPosition" x="1250" y="4980"><tspan fill="rgb(0,0,0)" stroke="none">1.00E+07</tspan></tspan></tspan></text>
 <text class="TextShape"><tspan class="TextParagraph" font-family="Liberation Sans" font-size="353px" font-weight="400"><tspan class="TextPosition" x="1250" y="4233"/><tspan class="TextPosition" x="1250" y="4233"><tspan fill="rgb(0,0,0)" stroke="none">1.50E+07</tspan></tspan></tspan></text>
 <text class="TextShape"><tspan class="TextParagraph" font-family="Liberation Sans" font-size="353px" font-weight="400"><tspan class="TextPosition" x="1250" y="3486"/><tspan class="TextPosition" x="1250" y="3486"><tspan fill="rgb(0,0,0)" stroke="none">2.00E+07</tspan></tspan></tspan></text>
 <text class="TextShape"><tspan class="TextParagraph" font-family="Liberation Sans" font-size="353px" font-weight="400"><tspan class="TextPosition" x="1250" y="2738"/><tspan class="TextPosition" x="1250" y="2738"><tspan fill="rgb(0,0,0)" stroke="none">2.50E+07</tspan></tspan></tspan></text>
 <text class="TextShape"><tspan class="TextParagraph" font-family="Liberation Sans" font-size="353px" font-weight="400"><tspan class="TextPosition" x="1250" y="1991"/><tspan class="TextPosition" x="1250" y="1991"><tspan fill="rgb(0,0,0)" stroke="none">3.00E+07</tspan></tspan></tspan></text>
 <text class="TextShape"><tspan class="TextParagraph" font-family="Liberation Sans" font-size="353px" font-weight="400"><tspan class="TextPosition" x="1250" y="1244"/><tspan class="TextPosition" x="1250" y="1244"><tspan fill="rgb(0,0,0)" stroke="none">3.50E+07</tspan></tspan></tspan></text>
 <text class="TextShape"><tspan class="TextParagraph" font-family="Liberation Sans" font-size="353px" font-weight="400"><tspan class="TextPosition" x="1250" y="497"/><tspan class="TextPosition" x="1250" y="497"><tspan fill="rgb(0,0,0)" stroke="none">4.00E+07</tspan></tspan></tspan></text>
 <text class="TextShape"><tspan class="TextParagraph" font-family="Liberation Sans" font-size="353px" font-weight="400"><tspan class="TextPosition" x="3316" y="4184"/><tspan class="TextPosition" x="3316" y="4184"><tspan fill="rgb(0,0,0)" stroke="none">1.33E+07</tspan></tspan></tspan></text>
 <text class="TextShape"><tspan class="TextParagraph" font-family="Liberation Sans" font-size="353px" font-weight="400"><tspan class="TextPosition" x="4606" y="3389"/><tspan class="TextPosition" x="4606" y="3389"><tspan fill="rgb(0,0,0)" stroke="none">1.87E+07</tspan></tspan></tspan></text>
 <text class="TextShape"><tspan class="TextParagraph" font-family="Liberation Sans" font-size="353px" font-weight="400"><tspan class="TextPosition" x="5897" y="2904"/><tspan class="TextPosition" x="5897" y="2904"><tspan fill="rgb(0,0,0)" stroke="none">2.19E+07</tspan></tspan></tspan></text>
 <text class="TextShape"><tspan class="TextParagraph" font-family="Liberation Sans" font-size="353px" font-weight="400"><tspan class="TextPosition" x="7187" y="3849"/><tspan class="TextPosition" x="7187" y="3849"><tspan fill="rgb(0,0,0)" stroke="none">1.56E+07</tspan></tspan></tspan></text>
 <text class="TextShape"><tspan class="TextParagraph" font-family="Liberation Sans" font-size="353px" font-weight="400"><tspan class="TextPosition" x="8478" y="3161"/><tspan class="TextPosition" x="8478" y="3161"><tspan fill="rgb(0,0,0)" stroke="none">2.02E+07</tspan></tspan></tspan></text>
 <text class="TextShape"><tspan class="TextParagraph" font-family="Liberation Sans" font-size="353px" font-weight="400"><tspan class="TextPosition" x="9769" y="1323"/><tspan class="TextPosition" x="9769" y="1323"><tspan fill="rgb(0,0,0)" stroke="none">3.25E+07</tspan></tspan></tspan></text>
 <text class="TextShape"><tspan class="TextParagraph" font-family="Liberation Sans" font-size="353px" font-weight="400"><tspan class="TextPosition" x="11059" y="3993"/><tspan class="TextPosition" x="11059" y="3993"><tspan fill="rgb(0,0,0)" stroke="none">1.46E+07</tspan></tspan></tspan></text>
 <text class="TextShape"><tspan class="TextParagraph" font-family="Liberation Sans" font-size="353px" font-weight="400"><tspan class="TextPosition" x="12350" y="3875"/><tspan class="TextPosition" x="12350" y="3875"><tspan fill="rgb(0,0,0)" stroke="none">1.54E+07</tspan></tspan></tspan></text>
 <text class="TextShape"><tspan class="TextParagraph" font-family="Liberation Sans" font-size="353px" font-weight="400"><tspan class="TextPosition" x="13640" y="990"/><tspan class="TextPosition" x="13640" y="990"><tspan fill="rgb(0,0,0)" stroke="none">3.47E+07</tspan></tspan></tspan></text>
 <path fill="rgb(51,153,255)" stroke="none" d="M 3101,8122 L 2996,8122 2996,7911 3207,7911 3207,8122 3101,8122 Z"/>
 <path fill="rgb(51,51,255)" stroke="none" d="M 5075,8122 L 4970,8122 4970,7911 5181,7911 5181,8122 5075,8122 Z"/>
 <path fill="rgb(0,69,134)" stroke="none" d="M 7049,8122 L 6944,8122 6944,7911 7155,7911 7155,8122 7049,8122 Z"/>
 <path fill="rgb(153,255,102)" stroke="none" d="M 9208,8122 L 9102,8122 9102,7911 9313,7911 9313,8122 9208,8122 Z"/>
 <path fill="rgb(0,153,0)" stroke="none" d="M 11367,8122 L 11261,8122 11261,7911 11472,7911 11472,8122 11367,8122 Z"/>
 <path fill="rgb(0,102,0)" stroke="none" d="M 3101,8620 L 2996,8620 2996,8409 3207,8409 3207,8620 3101,8620 Z"/>
 <path fill="rgb(255,0,0)" stroke="none" d="M 5075,8620 L 4970,8620 4970,8409 5181,8409 5181,8620 5075,8620 Z"/>
 <path fill="rgb(204,0,0)" stroke="none" d="M 7049,8620 L 6944,8620 6944,8409 7155,8409 7155,8620 7049,8620 Z"/>
 <path fill="rgb(153,0,0)" stroke="none" d="M 9208,8620 L 9102,8620 9102,8409 9313,8409 9313,8620 9208,8620 Z"/>
 <text class="TextShape"><tspan class="TextParagraph" font-family="Liberation Sans" font-size="353px" font-weight="400"><tspan class="TextPosition" x="3307" y="8136"/><tspan class="TextPosition" x="3307" y="8136"><tspan fill="rgb(0,0,0)" stroke="none">48-12(1)</tspan></tspan></tspan></text>
 <text class="TextShape"><tspan class="TextParagraph" font-family="Liberation Sans" font-size="353px" font-weight="400"><tspan class="TextPosition" x="5281" y="8136"/><tspan class="TextPosition" x="5281" y="8136"><tspan fill="rgb(0,0,0)" stroke="none">100-12(1)</tspan></tspan></tspan></text>
 <text class="TextShape"><tspan class="TextParagraph" font-family="Liberation Sans" font-size="353px" font-weight="400"><tspan class="TextPosition" x="7255" y="8136"/><tspan class="TextPosition" x="7255" y="8136"><tspan fill="rgb(0,0,0)" stroke="none">200-12(1)</tspan></tspan></tspan></text>
 <text class="TextShape"><tspan class="TextParagraph" font-family="Liberation Sans" font-size="353px" font-weight="400"><tspan class="TextPosition" x="9413" y="8136"/><tspan class="TextPosition" x="9413" y="8136"><tspan fill="rgb(0,0,0)" stroke="none">48-12(6)</tspan></tspan></tspan></text>
 <text class="TextShape"><tspan class="TextParagraph" font-family="Liberation Sans" font-size="353px" font-weight="400"><tspan class="TextPosition" x="11572" y="8136"/><tspan class="TextPosition" x="11572" y="8136"><tspan fill="rgb(0,0,0)" stroke="none">100-12(6)</tspan></tspan></tspan></text>
 <text class="TextShape"><tspan class="TextParagraph" font-family="Liberation Sans" font-size="353px" font-weight="400"><tspan class="TextPosition" x="3307" y="8634"/><tspan class="TextPosition" x="3307" y="8634"><tspan fill="rgb(0,0,0)" stroke="none">200-12(6)</tspan></tspan></tspan></text>
 <text class="TextShape"><tspan class="TextParagraph" font-family="Liberation Sans" font-size="353px" font-weight="400"><tspan class="TextPosition" x="5281" y="8634"/><tspan class="TextPosition" x="5281" y="8634"><tspan fill="rgb(0,0,0)" stroke="none">48-12(12)</tspan></tspan></tspan></text>
 <text class="TextShape"><tspan class="TextParagraph" font-family="Liberation Sans" font-size="353px" font-weight="400"><tspan class="TextPosition" x="7255" y="8634"/><tspan class="TextPosition" x="7255" y="8634"><tspan fill="rgb(0,0,0)" stroke="none">100-12(12)</tspan></tspan></tspan></text>
 <text class="TextShape"><tspan class="TextParagraph" font-family="Liberation Sans" font-size="353px" font-weight="400"><tspan class="TextPosition" x="9413" y="8634"/><tspan class="TextPosition" x="9413" y="8634"><tspan fill="rgb(0,0,0)" stroke="none">200-12(12)</tspan></tspan></tspan></text>
 <text class="TextShape"><tspan class="TextParagraph" font-family="Liberation Sans" font-size="318px" font-weight="400"><tspan class="TextPosition" x="8062" y="7121"/><tspan class="TextPosition" x="8062" y="7121"><tspan fill="rgb(0,0,0)" stroke="none">Test</tspan></tspan></tspan></text>
 <text class="TextShape" transform="translate(755,3697) rotate(-90) translate(-755,-3697)"><tspan class="TextParagraph" font-family="Liberation Sans" font-size="318px" font-weight="400"><tspan class="TextPosition" x="755" y="3697"/><tspan class="TextPosition" x="755" y="3697"><tspan fill="rgb(0,0,0)" stroke="none">MSE</tspan></tspan></tspan></text>
</svg>