<?xml version="1.0" encoding="UTF-8"?>
<!DOCTYPE svg PUBLIC "-//W3C//DTD SVG 1.1//EN" "http://www.w3.org/Graphics/SVG/1.1/DTD/svg11.dtd">
<svg width="160mm" height="90mm" viewBox="0 0 16000 9000" version="1.1" baseProfile="tiny" xmlns="http://www.w3.org/2000/svg" stroke-width="28.222" stroke-linejoin="round" xml:space="preserve">
 <path fill="rgb(255,255,255)" stroke="none" d="M 8016,8999 L 16,8999 16,0 16015,0 16015,8999 8016,8999 Z"/>
 <path fill="none" stroke="rgb(179,179,179)" stroke-linejoin="round" d="M 8977,6358 L 2259,6358 2259,379 15695,379 15695,6358 8977,6358 Z"/>
 <path fill="none" stroke="rgb(179,179,179)" stroke-linejoin="round" d="M 15694,6357 L 2259,6357"/>
 <path fill="none" stroke="rgb(179,179,179)" stroke-linejoin="round" d="M 15694,5759 L 2259,5759"/>
 <path fill="none" stroke="rgb(179,179,179)" stroke-linejoin="round" d="M 15694,5161 L 2259,5161"/>
 <path fill="none" stroke="rgb(179,179,179)" stroke-linejoin="round" d="M 15694,4563 L 2259,4563"/>
 <path fill="none" stroke="rgb(179,179,179)" stroke-linejoin="round" d="M 15694,3966 L 2259,3966"/>
 <path fill="none" stroke="rgb(179,179,179)" stroke-linejoin="round" d="M 15694,3368 L 2259,3368"/>
 <path fill="none" stroke="rgb(179,179,179)" stroke-linejoin="round" d="M 15694,2769 L 2259,2769"/>
 <path fill="none" stroke="rgb(179,179,179)" stroke-linejoin="round" d="M 15694,2172 L 2259,2172"/>
 <path fill="none" stroke="rgb(179,179,179)" stroke-linejoin="round" d="M 15694,1574 L 2259,1574"/>
 <path fill="none" stroke="rgb(179,179,179)" stroke-linejoin="round" d="M 15694,976 L 2259,976"/>
 <path fill="none" stroke="rgb(179,179,179)" stroke-linejoin="round" d="M 15694,378 L 2259,378"/>
 <path fill="none" stroke="rgb(221,221,221)" stroke-linejoin="round" d="M 15694,6058 L 2259,6058"/>
 <path fill="none" stroke="rgb(221,221,221)" stroke-linejoin="round" d="M 15694,5460 L 2259,5460"/>
 <path fill="none" stroke="rgb(221,221,221)" stroke-linejoin="round" d="M 15694,4862 L 2259,4862"/>
 <path fill="none" stroke="rgb(221,221,221)" stroke-linejoin="round" d="M 15694,4265 L 2259,4265"/>
 <path fill="none" stroke="rgb(221,221,221)" stroke-linejoin="round" d="M 15694,3667 L 2259,3667"/>
 <path fill="none" stroke="rgb(221,221,221)" stroke-linejoin="round" d="M 15694,3068 L 2259,3068"/>
 <path fill="none" stroke="rgb(221,221,221)" stroke-linejoin="round" d="M 15694,2470 L 2259,2470"/>
 <path fill="none" stroke="rgb(221,221,221)" stroke-linejoin="round" d="M 15694,1873 L 2259,1873"/>
 <path fill="none" stroke="rgb(221,221,221)" stroke-linejoin="round" d="M 15694,1274 L 2259,1274"/>
 <path fill="none" stroke="rgb(221,221,221)" stroke-linejoin="round" d="M 15694,677 L 2259,677"/>
 <path fill="none" stroke="rgb(179,179,179)" stroke-linejoin="round" d="M 2259,6507 L 2259,6357"/>
 <path fill="none" stroke="rgb(179,179,179)" stroke-linejoin="round" d="M 2259,6507 L 2259,6357"/>
 <path fill="none" stroke="rgb(179,179,179)" stroke-linejoin="round" d="M 15694,6507 L 15694,6357"/>
 <path fill="none" stroke="rgb(179,179,179)" stroke-linejoin="round" d="M 15694,6507 L 15694,6357"/>
 <path fill="none" stroke="rgb(179,179,179)" stroke-linejoin="round" d="M 2259,6357 L 15694,6357"/>
 <path fill="none" stroke="rgb(179,179,179)" stroke-linejoin="round" d="M 2109,6357 L 2259,6357"/>
 <path fill="none" stroke="rgb(179,179,179)" stroke-linejoin="round" d="M 2109,6357 L 2259,6357"/>
 <path fill="none" stroke="rgb(179,179,179)" stroke-linejoin="round" d="M 2109,5759 L 2259,5759"/>
 <path fill="none" stroke="rgb(179,179,179)" stroke-linejoin="round" d="M 2109,5759 L 2259,5759"/>
 <path fill="none" stroke="rgb(179,179,179)" stroke-linejoin="round" d="M 2109,5161 L 2259,5161"/>
 <path fill="none" stroke="rgb(179,179,179)" stroke-linejoin="round" d="M 2109,5161 L 2259,5161"/>
 <path fill="none" stroke="rgb(179,179,179)" stroke-linejoin="round" d="M 2109,4563 L 2259,4563"/>
 <path fill="none" stroke="rgb(179,179,179)" stroke-linejoin="round" d="M 2109,4563 L 2259,4563"/>
 <path fill="none" stroke="rgb(179,179,179)" stroke-linejoin="round" d="M 2109,3966 L 2259,3966"/>
 <path fill="none" stroke="rgb(179,179,179)" stroke-linejoin="round" d="M 2109,3966 L 2259,3966"/>
 <path fill="none" stroke="rgb(179,179,179)" stroke-linejoin="round" d="M 2109,3368 L 2259,3368"/>
 <path fill="none" stroke="rgb(179,179,179)" stroke-linejoin="round" d="M 2109,3368 L 2259,3368"/>
 <path fill="none" stroke="rgb(179,179,179)" stroke-linejoin="round" d="M 2109,2769 L 2259,2769"/>
 <path fill="none" stroke="rgb(179,179,179)" stroke-linejoin="round" d="M 2109,2769 L 2259,2769"/>
 <path fill="none" stroke="rgb(179,179,179)" stroke-linejoin="round" d="M 2109,2172 L 2259,2172"/>
 <path fill="none" stroke="rgb(179,179,179)" stroke-linejoin="round" d="M 2109,2172 L 2259,2172"/>
 <path fill="none" stroke="rgb(179,179,179)" stroke-linejoin="round" d="M 2109,1574 L 2259,1574"/>
 <path fill="none" stroke="rgb(179,179,179)" stroke-linejoin="round" d="M 2109,1574 L 2259,1574"/>
 <path fill="none" stroke="rgb(179,179,179)" stroke-linejoin="round" d="M 2109,976 L 2259,976"/>
 <path fill="none" stroke="rgb(179,179,179)" stroke-linejoin="round" d="M 2109,976 L 2259,976"/>
 <path fill="none" stroke="rgb(179,179,179)" stroke-linejoin="round" d="M 2109,378 L 2259,378"/>
 <path fill="none" stroke="rgb(179,179,179)" stroke-linejoin="round" d="M 2109,378 L 2259,378"/>
 <path fill="none" stroke="rgb(179,179,179)" stroke-linejoin="round" d="M 2259,6357 L 2259,378"/>
 <path fill="rgb(51,153,255)" stroke="none" d="M 2838,6357 L 3996,6357 3996,4083 2838,4083 2838,6357 Z"/>
 <path fill="rgb(51,51,255)" stroke="none" d="M 4228,6357 L 5386,6357 5386,3038 4228,3038 4228,6357 Z"/>
 <path fill="rgb(0,69,134)" stroke="none" d="M 5618,6357 L 6776,6357 6776,3628 5618,3628 5618,6357 Z"/>
 <path fill="rgb(153,255,102)" stroke="none" d="M 7008,6357 L 8165,6357 8165,3045 7008,3045 7008,6357 Z"/>
 <path fill="rgb(0,153,0)" stroke="none" d="M 8397,6357 L 9555,6357 9555,3548 8397,3548 8397,6357 Z"/>
 <path fill="rgb(0,102,0)" stroke="none" d="M 9787,6357 L 10945,6357 10945,2802 9787,2802 9787,6357 Z"/>
 <path fill="rgb(255,0,0)" stroke="none" d="M 11177,6357 L 12335,6357 12335,3872 11177,3872 11177,6357 Z"/>
 <path fill="rgb(204,0,0)" stroke="none" d="M 12567,6357 L 13725,6357 13725,3610 12567,3610 12567,6357 Z"/>
 <path fill="rgb(153,0,0)" stroke="none" d="M 13957,6357 L 15115,6357 15115,747 13957,747 13957,6357 Z"/>
 <text class="TextShape"><tspan class="TextParagraph" font-family="Liberation Sans" font-size="353px" font-weight="400"><tspan class="TextPosition" x="1348" y="6478"/><tspan class="TextPosition" x="1348" y="6478"><tspan fill="rgb(0,0,0)" stroke="none">0.00</tspan></tspan></tspan></text>
 <text class="TextShape"><tspan class="TextParagraph" font-family="Liberation Sans" font-size="353px" font-weight="400"><tspan class="TextPosition" x="1348" y="5880"/><tspan class="TextPosition" x="1348" y="5880"><tspan fill="rgb(0,0,0)" stroke="none">0.20</tspan></tspan></tspan></text>
 <text class="TextShape"><tspan class="TextParagraph" font-family="Liberation Sans" font-size="353px" font-weight="400"><tspan class="TextPosition" x="1348" y="5282"/><tspan class="TextPosition" x="1348" y="5282"><tspan fill="rgb(0,0,0)" stroke="none">0.40</tspan></tspan></tspan></text>
 <text class="TextShape"><tspan class="TextParagraph" font-family="Liberation Sans" font-size="353px" font-weight="400"><tspan class="TextPosition" x="1348" y="4684"/><tspan class="TextPosition" x="1348" y="4684"><tspan fill="rgb(0,0,0)" stroke="none">0.60</tspan></tspan></tspan></text>
 <text class="TextShape"><tspan class="TextParagraph" font-family="Liberation Sans" font-size="353px" font-weight="400"><tspan class="TextPosition" x="1348" y="4086"/><tspan class="TextPosition" x="1348" y="4086"><tspan fill="rgb(0,0,0)" stroke="none">0.80</tspan></tspan></tspan></text>
 <text class="TextShape"><tspan class="TextParagraph" font-family="Liberation Sans" font-size="353px" font-weight="400"><tspan class="TextPosition" x="1348" y="3488"/><tspan class="TextPosition" x="1348" y="3488"><tspan fill="rgb(0,0,0)" stroke="none">1.00</tspan></tspan></tspan></text>
 <text class="TextShape"><tspan class="TextParagraph" font-family="Liberation Sans" font-size="353px" font-weight="400"><tspan class="TextPosition" x="1348" y="2889"/><tspan class="TextPosition" x="1348" y="2889"><tspan fill="rgb(0,0,0)" stroke="none">1.20</tspan></tspan></tspan></text>
 <text class="TextShape"><tspan class="TextParagraph" font-family="Liberation Sans" font-size="353px" font-weight="400"><tspan class="TextPosition" x="1348" y="2292"/><tspan class="TextPosition" x="1348" y="2292"><tspan fill="rgb(0,0,0)" stroke="none">1.40</tspan></tspan></tspan></text>
 <text class="TextShape"><tspan class="TextParagraph" font-family="Liberation Sans" font-size="353px" font-weight="400"><tspan class="TextPosition" x="1348" y="1694"/><tspan class="TextPosition" x="1348" y="1694"><tspan fill="rgb(0,0,0)" stroke="none">1.60</tspan></tspan></tspan></text>
 <text class="TextShape"><tspan class="TextParagraph" font-family="Liberation Sans" font-size="353px" font-weight="400"><tspan class="TextPosition" x="1348" y="1096"/><tspan class="TextPosition" x="1348" y="1096"><tspan fill="rgb(0,0,0)" stroke="none">1.80</tspan></tspan></tspan></text>
 <text class="TextShape"><tspan class="TextParagraph" font-family="Liberation Sans" font-size="353px" font-weight="400"><tspan class="TextPosition" x="1348" y="498"/><tspan class="TextPosition" x="1348" y="498"><tspan fill="rgb(0,0,0)" stroke="none">2.00</tspan></tspan></tspan></text>
 <text class="TextShape"><tspan class="TextParagraph" font-family="Liberation Sans" font-size="353px" font-weight="400"><tspan class="TextPosition" x="3086" y="3905"/><tspan class="TextPosition" x="3086" y="3905"><tspan fill="rgb(0,0,0)" stroke="none">0.76</tspan></tspan></tspan></text>
 <text class="TextShape"><tspan class="TextParagraph" font-family="Liberation Sans" font-size="353px" font-weight="400"><tspan class="TextPosition" x="4476" y="2860"/><tspan class="TextPosition" x="4476" y="2860"><tspan fill="rgb(0,0,0)" stroke="none">1.11</tspan></tspan></tspan></text>
 <text class="TextShape"><tspan class="TextParagraph" font-family="Liberation Sans" font-size="353px" font-weight="400"><tspan class="TextPosition" x="5866" y="3450"/><tspan class="TextPosition" x="5866" y="3450"><tspan fill="rgb(0,0,0)" stroke="none">0.91</tspan></tspan></tspan></text>
 <text class="TextShape"><tspan class="TextParagraph" font-family="Liberation Sans" font-size="353px" font-weight="400"><tspan class="TextPosition" x="7256" y="2867"/><tspan class="TextPosition" x="7256" y="2867"><tspan fill="rgb(0,0,0)" stroke="none">1.11</tspan></tspan></tspan></text>
 <text class="TextShape"><tspan class="TextParagraph" font-family="Liberation Sans" font-size="353px" font-weight="400"><tspan class="TextPosition" x="8646" y="3370"/><tspan class="TextPosition" x="8646" y="3370"><tspan fill="rgb(0,0,0)" stroke="none">0.94</tspan></tspan></tspan></text>
 <text class="TextShape"><tspan class="TextParagraph" font-family="Liberation Sans" font-size="353px" font-weight="400"><tspan class="TextPosition" x="10036" y="2624"/><tspan class="TextPosition" x="10036" y="2624"><tspan fill="rgb(0,0,0)" stroke="none">1.19</tspan></tspan></tspan></text>
 <text class="TextShape"><tspan class="TextParagraph" font-family="Liberation Sans" font-size="353px" font-weight="400"><tspan class="TextPosition" x="11426" y="3694"/><tspan class="TextPosition" x="11426" y="3694"><tspan fill="rgb(0,0,0)" stroke="none">0.83</tspan></tspan></tspan></text>
 <text class="TextShape"><tspan class="TextParagraph" font-family="Liberation Sans" font-size="353px" font-weight="400"><tspan class="TextPosition" x="12816" y="3432"/><tspan class="TextPosition" x="12816" y="3432"><tspan fill="rgb(0,0,0)" stroke="none">0.92</tspan></tspan></tspan></text>
 <text class="TextShape"><tspan class="TextParagraph" font-family="Liberation Sans" font-size="353px" font-weight="400"><tspan class="TextPosition" x="14206" y="569"/><tspan class="TextPosition" x="14206" y="569"><tspan fill="rgb(0,0,0)" stroke="none">1.88</tspan></tspan></tspan></text>
 <path fill="rgb(51,153,255)" stroke="none" d="M 3117,8122 L 3012,8122 3012,7911 3223,7911 3223,8122 3117,8122 Z"/>
 <path fill="rgb(51,51,255)" stroke="none" d="M 5091,8122 L 4986,8122 4986,7911 5197,7911 5197,8122 5091,8122 Z"/>
 <path fill="rgb(0,69,134)" stroke="none" d="M 7065,8122 L 6960,8122 6960,7911 7171,7911 7171,8122 7065,8122 Z"/>
 <path fill="rgb(153,255,102)" stroke="none" d="M 9224,8122 L 9118,8122 9118,7911 9329,7911 9329,8122 9224,8122 Z"/>
 <path fill="rgb(0,153,0)" stroke="none" d="M 11383,8122 L 11277,8122 11277,7911 11488,7911 11488,8122 11383,8122 Z"/>
 <path fill="rgb(0,102,0)" stroke="none" d="M 3117,8620 L 3012,8620 3012,8409 3223,8409 3223,8620 3117,8620 Z"/>
 <path fill="rgb(255,0,0)" stroke="none" d="M 5091,8620 L 4986,8620 4986,8409 5197,8409 5197,8620 5091,8620 Z"/>
 <path fill="rgb(204,0,0)" stroke="none" d="M 7065,8620 L 6960,8620 6960,8409 7171,8409 7171,8620 7065,8620 Z"/>
 <path fill="rgb(153,0,0)" stroke="none" d="M 9224,8620 L 9118,8620 9118,8409 9329,8409 9329,8620 9224,8620 Z"/>
 <text class="TextShape"><tspan class="TextParagraph" font-family="Liberation Sans" font-size="353px" font-weight="400"><tspan class="TextPosition" x="3323" y="8136"/><tspan class="TextPosition" x="3323" y="8136"><tspan fill="rgb(0,0,0)" stroke="none">48-12(1)</tspan></tspan></tspan></text>
 <text class="TextShape"><tspan class="TextParagraph" font-family="Liberation Sans" font-size="353px" font-weight="400"><tspan class="TextPosition" x="5297" y="8136"/><tspan class="TextPosition" x="5297" y="8136"><tspan fill="rgb(0,0,0)" stroke="none">100-12(1)</tspan></tspan></tspan></text>
 <text class="TextShape"><tspan class="TextParagraph" font-family="Liberation Sans" font-size="353px" font-weight="400"><tspan class="TextPosition" x="7271" y="8136"/><tspan class="TextPosition" x="7271" y="8136"><tspan fill="rgb(0,0,0)" stroke="none">200-12(1)</tspan></tspan></tspan></text>
 <text class="TextShape"><tspan class="TextParagraph" font-family="Liberation Sans" font-size="353px" font-weight="400"><tspan class="TextPosition" x="9429" y="8136"/><tspan class="TextPosition" x="9429" y="8136"><tspan fill="rgb(0,0,0)" stroke="none">48-12(6)</tspan></tspan></tspan></text>
 <text class="TextShape"><tspan class="TextParagraph" font-family="Liberation Sans" font-size="353px" font-weight="400"><tspan class="TextPosition" x="11588" y="8136"/><tspan class="TextPosition" x="11588" y="8136"><tspan fill="rgb(0,0,0)" stroke="none">100-12(6)</tspan></tspan></tspan></text>
 <text class="TextShape"><tspan class="TextParagraph" font-family="Liberation Sans" font-size="353px" font-weight="400"><tspan class="TextPosition" x="3323" y="8634"/><tspan class="TextPosition" x="3323" y="8634"><tspan fill="rgb(0,0,0)" stroke="none">200-12(6)</tspan></tspan></tspan></text>
 <text class="TextShape"><tspan class="TextParagraph" font-family="Liberation Sans" font-size="353px" font-weight="400"><tspan class="TextPosition" x="5297" y="8634"/><tspan class="TextPosition" x="5297" y="8634"><tspan fill="rgb(0,0,0)" stroke="none">48-12(12)</tspan></tspan></tspan></text>
 <text class="TextShape"><tspan class="TextParagraph" font-family="Liberation Sans" font-size="353px" font-weight="400"><tspan class="TextPosition" x="7271" y="8634"/><tspan class="TextPosition" x="7271" y="8634"><tspan fill="rgb(0,0,0)" stroke="none">100-12(12)</tspan></tspan></tspan></text>
 <text class="TextShape"><tspan class="TextParagraph" font-family="Liberation Sans" font-size="353px" font-weight="400"><tspan class="TextPosition" x="9429" y="8634"/><tspan class="TextPosition" x="9429" y="8634"><tspan fill="rgb(0,0,0)" stroke="none">200-12(12)</tspan></tspan></tspan></text>
 <text class="TextShape"><tspan class="TextParagraph" font-family="Liberation Sans" font-size="318px" font-weight="400"><tspan class="TextPosition" x="8230" y="7124"/><tspan class="TextPosition" x="8230" y="7124"><tspan fill="rgb(0,0,0)" stroke="none">Test</tspan></tspan></tspan></text>
 <text class="TextShape" transform="translate(853,6027) rotate(-90) translate(-853,-6027)"><tspan class="TextParagraph" font-family="Liberation Sans" font-size="318px" font-weight="400"><tspan class="TextPosition" x="853" y="6027"/><tspan class="TextPosition" x="853" y="6027"><tspan fill="rgb(0,0,0)" stroke="none">MSE ratios of benchmarked R model</tspan></tspan></tspan></text>
</svg>