<?xml version="1.0" encoding="UTF-8"?>
<!DOCTYPE svg PUBLIC "-//W3C//DTD SVG 1.1//EN" "http://www.w3.org/Graphics/SVG/1.1/DTD/svg11.dtd">
<svg width="160mm" height="90mm" viewBox="0 0 16000 9000" version="1.1" baseProfile="tiny" xmlns="http://www.w3.org/2000/svg" stroke-width="28.222" stroke-linejoin="round" xml:space="preserve">
 <path fill="rgb(255,255,255)" stroke="none" d="M 8015,8999 L 15,8999 15,0 16014,0 16014,8999 8015,8999 Z"/>
 <path fill="none" stroke="rgb(179,179,179)" stroke-linejoin="round" d="M 8976,6358 L 2258,6358 2258,379 15694,379 15694,6358 8976,6358 Z"/>
 <path fill="none" stroke="rgb(179,179,179)" stroke-linejoin="round" d="M 15693,6356 L 2258,6356"/>
 <path fill="none" stroke="rgb(179,179,179)" stroke-linejoin="round" d="M 15693,5692 L 2258,5692"/>
 <path fill="none" stroke="rgb(179,179,179)" stroke-linejoin="round" d="M 15693,5028 L 2258,5028"/>
 <path fill="none" stroke="rgb(179,179,179)" stroke-linejoin="round" d="M 15693,4364 L 2258,4364"/>
 <path fill="none" stroke="rgb(179,179,179)" stroke-linejoin="round" d="M 15693,3700 L 2258,3700"/>
 <path fill="none" stroke="rgb(179,179,179)" stroke-linejoin="round" d="M 15693,3035 L 2258,3035"/>
 <path fill="none" stroke="rgb(179,179,179)" stroke-linejoin="round" d="M 15693,2371 L 2258,2371"/>
 <path fill="none" stroke="rgb(179,179,179)" stroke-linejoin="round" d="M 15693,1706 L 2258,1706"/>
 <path fill="none" stroke="rgb(179,179,179)" stroke-linejoin="round" d="M 15693,1042 L 2258,1042"/>
 <path fill="none" stroke="rgb(179,179,179)" stroke-linejoin="round" d="M 15693,377 L 2258,377"/>
 <path fill="none" stroke="rgb(221,221,221)" stroke-linejoin="round" d="M 15693,6024 L 2258,6024"/>
 <path fill="none" stroke="rgb(221,221,221)" stroke-linejoin="round" d="M 15693,5360 L 2258,5360"/>
 <path fill="none" stroke="rgb(221,221,221)" stroke-linejoin="round" d="M 15693,4695 L 2258,4695"/>
 <path fill="none" stroke="rgb(221,221,221)" stroke-linejoin="round" d="M 15693,4032 L 2258,4032"/>
 <path fill="none" stroke="rgb(221,221,221)" stroke-linejoin="round" d="M 15693,3367 L 2258,3367"/>
 <path fill="none" stroke="rgb(221,221,221)" stroke-linejoin="round" d="M 15693,2703 L 2258,2703"/>
 <path fill="none" stroke="rgb(221,221,221)" stroke-linejoin="round" d="M 15693,2039 L 2258,2039"/>
 <path fill="none" stroke="rgb(221,221,221)" stroke-linejoin="round" d="M 15693,1374 L 2258,1374"/>
 <path fill="none" stroke="rgb(221,221,221)" stroke-linejoin="round" d="M 15693,710 L 2258,710"/>
 <path fill="none" stroke="rgb(179,179,179)" stroke-linejoin="round" d="M 2258,6506 L 2258,6356"/>
 <path fill="none" stroke="rgb(179,179,179)" stroke-linejoin="round" d="M 2258,6506 L 2258,6356"/>
 <path fill="none" stroke="rgb(179,179,179)" stroke-linejoin="round" d="M 15693,6506 L 15693,6356"/>
 <path fill="none" stroke="rgb(179,179,179)" stroke-linejoin="round" d="M 15693,6506 L 15693,6356"/>
 <path fill="none" stroke="rgb(179,179,179)" stroke-linejoin="round" d="M 2258,6356 L 15693,6356"/>
 <path fill="none" stroke="rgb(179,179,179)" stroke-linejoin="round" d="M 2108,6356 L 2258,6356"/>
 <path fill="none" stroke="rgb(179,179,179)" stroke-linejoin="round" d="M 2108,6356 L 2258,6356"/>
 <path fill="none" stroke="rgb(179,179,179)" stroke-linejoin="round" d="M 2108,5692 L 2258,5692"/>
 <path fill="none" stroke="rgb(179,179,179)" stroke-linejoin="round" d="M 2108,5692 L 2258,5692"/>
 <path fill="none" stroke="rgb(179,179,179)" stroke-linejoin="round" d="M 2108,5028 L 2258,5028"/>
 <path fill="none" stroke="rgb(179,179,179)" stroke-linejoin="round" d="M 2108,5028 L 2258,5028"/>
 <path fill="none" stroke="rgb(179,179,179)" stroke-linejoin="round" d="M 2108,4364 L 2258,4364"/>
 <path fill="none" stroke="rgb(179,179,179)" stroke-linejoin="round" d="M 2108,4364 L 2258,4364"/>
 <path fill="none" stroke="rgb(179,179,179)" stroke-linejoin="round" d="M 2108,3700 L 2258,3700"/>
 <path fill="none" stroke="rgb(179,179,179)" stroke-linejoin="round" d="M 2108,3700 L 2258,3700"/>
 <path fill="none" stroke="rgb(179,179,179)" stroke-linejoin="round" d="M 2108,3035 L 2258,3035"/>
 <path fill="none" stroke="rgb(179,179,179)" stroke-linejoin="round" d="M 2108,3035 L 2258,3035"/>
 <path fill="none" stroke="rgb(179,179,179)" stroke-linejoin="round" d="M 2108,2371 L 2258,2371"/>
 <path fill="none" stroke="rgb(179,179,179)" stroke-linejoin="round" d="M 2108,2371 L 2258,2371"/>
 <path fill="none" stroke="rgb(179,179,179)" stroke-linejoin="round" d="M 2108,1706 L 2258,1706"/>
 <path fill="none" stroke="rgb(179,179,179)" stroke-linejoin="round" d="M 2108,1706 L 2258,1706"/>
 <path fill="none" stroke="rgb(179,179,179)" stroke-linejoin="round" d="M 2108,1042 L 2258,1042"/>
 <path fill="none" stroke="rgb(179,179,179)" stroke-linejoin="round" d="M 2108,1042 L 2258,1042"/>
 <path fill="none" stroke="rgb(179,179,179)" stroke-linejoin="round" d="M 2108,377 L 2258,377"/>
 <path fill="none" stroke="rgb(179,179,179)" stroke-linejoin="round" d="M 2108,377 L 2258,377"/>
 <path fill="none" stroke="rgb(179,179,179)" stroke-linejoin="round" d="M 2258,6356 L 2258,377"/>
 <path fill="rgb(51,153,255)" stroke="none" d="M 2837,6356 L 3995,6356 3995,3600 2837,3600 2837,6356 Z"/>
 <path fill="rgb(51,51,255)" stroke="none" d="M 4227,6356 L 5385,6356 5385,1682 4227,1682 4227,6356 Z"/>
 <path fill="rgb(0,69,134)" stroke="none" d="M 5617,6356 L 6775,6356 6775,2665 5617,2665 5617,6356 Z"/>
 <path fill="rgb(153,255,102)" stroke="none" d="M 7007,6356 L 8164,6356 8164,4549 7007,4549 7007,6356 Z"/>
 <path fill="rgb(0,153,0)" stroke="none" d="M 8396,6356 L 9554,6356 9554,3757 8396,3757 8396,6356 Z"/>
 <path fill="rgb(0,102,0)" stroke="none" d="M 9786,6356 L 10944,6356 10944,1605 9786,1605 9786,6356 Z"/>
 <path fill="rgb(255,0,0)" stroke="none" d="M 11176,6356 L 12334,6356 12334,2572 11176,2572 11176,6356 Z"/>
 <path fill="rgb(204,0,0)" stroke="none" d="M 12566,6356 L 13724,6356 13724,1046 12566,1046 12566,6356 Z"/>
 <path fill="rgb(153,0,0)" stroke="none" d="M 13956,6356 L 15114,6356 15114,2642 13956,2642 13956,6356 Z"/>
 <text class="TextShape"><tspan class="TextParagraph" font-family="Liberation Sans" font-size="353px" font-weight="400"><tspan class="TextPosition" x="1347" y="6477"/><tspan class="TextPosition" x="1347" y="6477"><tspan fill="rgb(0,0,0)" stroke="none">0.90</tspan></tspan></tspan></text>
 <text class="TextShape"><tspan class="TextParagraph" font-family="Liberation Sans" font-size="353px" font-weight="400"><tspan class="TextPosition" x="1347" y="5813"/><tspan class="TextPosition" x="1347" y="5813"><tspan fill="rgb(0,0,0)" stroke="none">0.92</tspan></tspan></tspan></text>
 <text class="TextShape"><tspan class="TextParagraph" font-family="Liberation Sans" font-size="353px" font-weight="400"><tspan class="TextPosition" x="1347" y="5149"/><tspan class="TextPosition" x="1347" y="5149"><tspan fill="rgb(0,0,0)" stroke="none">0.94</tspan></tspan></tspan></text>
 <text class="TextShape"><tspan class="TextParagraph" font-family="Liberation Sans" font-size="353px" font-weight="400"><tspan class="TextPosition" x="1347" y="4484"/><tspan class="TextPosition" x="1347" y="4484"><tspan fill="rgb(0,0,0)" stroke="none">0.96</tspan></tspan></tspan></text>
 <text class="TextShape"><tspan class="TextParagraph" font-family="Liberation Sans" font-size="353px" font-weight="400"><tspan class="TextPosition" x="1347" y="3820"/><tspan class="TextPosition" x="1347" y="3820"><tspan fill="rgb(0,0,0)" stroke="none">0.98</tspan></tspan></tspan></text>
 <text class="TextShape"><tspan class="TextParagraph" font-family="Liberation Sans" font-size="353px" font-weight="400"><tspan class="TextPosition" x="1347" y="3155"/><tspan class="TextPosition" x="1347" y="3155"><tspan fill="rgb(0,0,0)" stroke="none">1.00</tspan></tspan></tspan></text>
 <text class="TextShape"><tspan class="TextParagraph" font-family="Liberation Sans" font-size="353px" font-weight="400"><tspan class="TextPosition" x="1347" y="2491"/><tspan class="TextPosition" x="1347" y="2491"><tspan fill="rgb(0,0,0)" stroke="none">1.02</tspan></tspan></tspan></text>
 <text class="TextShape"><tspan class="TextParagraph" font-family="Liberation Sans" font-size="353px" font-weight="400"><tspan class="TextPosition" x="1347" y="1826"/><tspan class="TextPosition" x="1347" y="1826"><tspan fill="rgb(0,0,0)" stroke="none">1.04</tspan></tspan></tspan></text>
 <text class="TextShape"><tspan class="TextParagraph" font-family="Liberation Sans" font-size="353px" font-weight="400"><tspan class="TextPosition" x="1347" y="1162"/><tspan class="TextPosition" x="1347" y="1162"><tspan fill="rgb(0,0,0)" stroke="none">1.06</tspan></tspan></tspan></text>
 <text class="TextShape"><tspan class="TextParagraph" font-family="Liberation Sans" font-size="353px" font-weight="400"><tspan class="TextPosition" x="1347" y="497"/><tspan class="TextPosition" x="1347" y="497"><tspan fill="rgb(0,0,0)" stroke="none">1.08</tspan></tspan></tspan></text>
 <text class="TextShape"><tspan class="TextParagraph" font-family="Liberation Sans" font-size="353px" font-weight="400"><tspan class="TextPosition" x="3085" y="3422"/><tspan class="TextPosition" x="3085" y="3422"><tspan fill="rgb(0,0,0)" stroke="none">0.98</tspan></tspan></tspan></text>
 <text class="TextShape"><tspan class="TextParagraph" font-family="Liberation Sans" font-size="353px" font-weight="400"><tspan class="TextPosition" x="4475" y="1504"/><tspan class="TextPosition" x="4475" y="1504"><tspan fill="rgb(0,0,0)" stroke="none">1.04</tspan></tspan></tspan></text>
 <text class="TextShape"><tspan class="TextParagraph" font-family="Liberation Sans" font-size="353px" font-weight="400"><tspan class="TextPosition" x="5865" y="2487"/><tspan class="TextPosition" x="5865" y="2487"><tspan fill="rgb(0,0,0)" stroke="none">1.01</tspan></tspan></tspan></text>
 <text class="TextShape"><tspan class="TextParagraph" font-family="Liberation Sans" font-size="353px" font-weight="400"><tspan class="TextPosition" x="7255" y="4372"/><tspan class="TextPosition" x="7255" y="4372"><tspan fill="rgb(0,0,0)" stroke="none">0.95</tspan></tspan></tspan></text>
 <text class="TextShape"><tspan class="TextParagraph" font-family="Liberation Sans" font-size="353px" font-weight="400"><tspan class="TextPosition" x="8645" y="3579"/><tspan class="TextPosition" x="8645" y="3579"><tspan fill="rgb(0,0,0)" stroke="none">0.98</tspan></tspan></tspan></text>
 <text class="TextShape"><tspan class="TextParagraph" font-family="Liberation Sans" font-size="353px" font-weight="400"><tspan class="TextPosition" x="10035" y="1427"/><tspan class="TextPosition" x="10035" y="1427"><tspan fill="rgb(0,0,0)" stroke="none">1.04</tspan></tspan></tspan></text>
 <text class="TextShape"><tspan class="TextParagraph" font-family="Liberation Sans" font-size="353px" font-weight="400"><tspan class="TextPosition" x="11425" y="2394"/><tspan class="TextPosition" x="11425" y="2394"><tspan fill="rgb(0,0,0)" stroke="none">1.01</tspan></tspan></tspan></text>
 <text class="TextShape"><tspan class="TextParagraph" font-family="Liberation Sans" font-size="353px" font-weight="400"><tspan class="TextPosition" x="12815" y="868"/><tspan class="TextPosition" x="12815" y="868"><tspan fill="rgb(0,0,0)" stroke="none">1.06</tspan></tspan></tspan></text>
 <text class="TextShape"><tspan class="TextParagraph" font-family="Liberation Sans" font-size="353px" font-weight="400"><tspan class="TextPosition" x="14205" y="2464"/><tspan class="TextPosition" x="14205" y="2464"><tspan fill="rgb(0,0,0)" stroke="none">1.01</tspan></tspan></tspan></text>
 <path fill="rgb(51,153,255)" stroke="none" d="M 3116,8122 L 3011,8122 3011,7911 3222,7911 3222,8122 3116,8122 Z"/>
 <path fill="rgb(51,51,255)" stroke="none" d="M 5090,8122 L 4985,8122 4985,7911 5196,7911 5196,8122 5090,8122 Z"/>
 <path fill="rgb(0,69,134)" stroke="none" d="M 7064,8122 L 6959,8122 6959,7911 7170,7911 7170,8122 7064,8122 Z"/>
 <path fill="rgb(153,255,102)" stroke="none" d="M 9223,8122 L 9117,8122 9117,7911 9328,7911 9328,8122 9223,8122 Z"/>
 <path fill="rgb(0,153,0)" stroke="none" d="M 11382,8122 L 11276,8122 11276,7911 11487,7911 11487,8122 11382,8122 Z"/>
 <path fill="rgb(0,102,0)" stroke="none" d="M 3116,8620 L 3011,8620 3011,8409 3222,8409 3222,8620 3116,8620 Z"/>
 <path fill="rgb(255,0,0)" stroke="none" d="M 5090,8620 L 4985,8620 4985,8409 5196,8409 5196,8620 5090,8620 Z"/>
 <path fill="rgb(204,0,0)" stroke="none" d="M 7064,8620 L 6959,8620 6959,8409 7170,8409 7170,8620 7064,8620 Z"/>
 <path fill="rgb(153,0,0)" stroke="none" d="M 9223,8620 L 9117,8620 9117,8409 9328,8409 9328,8620 9223,8620 Z"/>
 <text class="TextShape"><tspan class="TextParagraph" font-family="Liberation Sans" font-size="353px" font-weight="400"><tspan class="TextPosition" x="3322" y="8136"/><tspan class="TextPosition" x="3322" y="8136"><tspan fill="rgb(0,0,0)" stroke="none">48-12(1)</tspan></tspan></tspan></text>
 <text class="TextShape"><tspan class="TextParagraph" font-family="Liberation Sans" font-size="353px" font-weight="400"><tspan class="TextPosition" x="5296" y="8136"/><tspan class="TextPosition" x="5296" y="8136"><tspan fill="rgb(0,0,0)" stroke="none">100-12(1)</tspan></tspan></tspan></text>
 <text class="TextShape"><tspan class="TextParagraph" font-family="Liberation Sans" font-size="353px" font-weight="400"><tspan class="TextPosition" x="7270" y="8136"/><tspan class="TextPosition" x="7270" y="8136"><tspan fill="rgb(0,0,0)" stroke="none">200-12(1)</tspan></tspan></tspan></text>
 <text class="TextShape"><tspan class="TextParagraph" font-family="Liberation Sans" font-size="353px" font-weight="400"><tspan class="TextPosition" x="9428" y="8136"/><tspan class="TextPosition" x="9428" y="8136"><tspan fill="rgb(0,0,0)" stroke="none">48-12(6)</tspan></tspan></tspan></text>
 <text class="TextShape"><tspan class="TextParagraph" font-family="Liberation Sans" font-size="353px" font-weight="400"><tspan class="TextPosition" x="11587" y="8136"/><tspan class="TextPosition" x="11587" y="8136"><tspan fill="rgb(0,0,0)" stroke="none">100-12(6)</tspan></tspan></tspan></text>
 <text class="TextShape"><tspan class="TextParagraph" font-family="Liberation Sans" font-size="353px" font-weight="400"><tspan class="TextPosition" x="3322" y="8634"/><tspan class="TextPosition" x="3322" y="8634"><tspan fill="rgb(0,0,0)" stroke="none">200-12(6)</tspan></tspan></tspan></text>
 <text class="TextShape"><tspan class="TextParagraph" font-family="Liberation Sans" font-size="353px" font-weight="400"><tspan class="TextPosition" x="5296" y="8634"/><tspan class="TextPosition" x="5296" y="8634"><tspan fill="rgb(0,0,0)" stroke="none">48-12(12)</tspan></tspan></tspan></text>
 <text class="TextShape"><tspan class="TextParagraph" font-family="Liberation Sans" font-size="353px" font-weight="400"><tspan class="TextPosition" x="7270" y="8634"/><tspan class="TextPosition" x="7270" y="8634"><tspan fill="rgb(0,0,0)" stroke="none">100-12(12)</tspan></tspan></tspan></text>
 <text class="TextShape"><tspan class="TextParagraph" font-family="Liberation Sans" font-size="353px" font-weight="400"><tspan class="TextPosition" x="9428" y="8634"/><tspan class="TextPosition" x="9428" y="8634"><tspan fill="rgb(0,0,0)" stroke="none">200-12(12)</tspan></tspan></tspan></text>
 <text class="TextShape"><tspan class="TextParagraph" font-family="Liberation Sans" font-size="318px" font-weight="400"><tspan class="TextPosition" x="8229" y="7124"/><tspan class="TextPosition" x="8229" y="7124"><tspan fill="rgb(0,0,0)" stroke="none">Test</tspan></tspan></tspan></text>
 <text class="TextShape" transform="translate(852,6027) rotate(-90) translate(-852,-6027)"><tspan class="TextParagraph" font-family="Liberation Sans" font-size="318px" font-weight="400"><tspan class="TextPosition" x="852" y="6027"/><tspan class="TextPosition" x="852" y="6027"><tspan fill="rgb(0,0,0)" stroke="none">MSE ratios of benchmarked R model</tspan></tspan></tspan></text>
</svg>