<?xml version="1.0" encoding="UTF-8"?>
<!DOCTYPE svg PUBLIC "-//W3C//DTD SVG 1.1//EN" "http://www.w3.org/Graphics/SVG/1.1/DTD/svg11.dtd">
<svg width="155mm" height="91mm" viewBox="0 0 15500 9100" version="1.1" baseProfile="tiny" xmlns="http://www.w3.org/2000/svg" stroke-width="28.222" stroke-linejoin="round" xml:space="preserve">
 <path fill="rgb(255,255,255)" stroke="none" d="M 7749,9137 L 0,9137 0,0 15497,0 15497,9137 7749,9137 Z"/>
 <path fill="none" stroke="rgb(179,179,179)" stroke-linejoin="round" d="M 9120,6494 L 3053,6494 3053,381 15188,381 15188,6494 9120,6494 Z"/>
 <path fill="none" stroke="rgb(179,179,179)" stroke-linejoin="round" d="M 15188,6493 L 3053,6493"/>
 <path fill="none" stroke="rgb(179,179,179)" stroke-linejoin="round" d="M 15188,5813 L 3053,5813"/>
 <path fill="none" stroke="rgb(179,179,179)" stroke-linejoin="round" d="M 15188,5134 L 3053,5134"/>
 <path fill="none" stroke="rgb(179,179,179)" stroke-linejoin="round" d="M 15188,4456 L 3053,4456"/>
 <path fill="none" stroke="rgb(179,179,179)" stroke-linejoin="round" d="M 15188,3776 L 3053,3776"/>
 <path fill="none" stroke="rgb(179,179,179)" stroke-linejoin="round" d="M 15188,3097 L 3053,3097"/>
 <path fill="none" stroke="rgb(179,179,179)" stroke-linejoin="round" d="M 15188,2417 L 3053,2417"/>
 <path fill="none" stroke="rgb(179,179,179)" stroke-linejoin="round" d="M 15188,1738 L 3053,1738"/>
 <path fill="none" stroke="rgb(179,179,179)" stroke-linejoin="round" d="M 15188,1059 L 3053,1059"/>
 <path fill="none" stroke="rgb(179,179,179)" stroke-linejoin="round" d="M 15188,379 L 3053,379"/>
 <path fill="none" stroke="rgb(221,221,221)" stroke-linejoin="round" d="M 15188,6153 L 3053,6153"/>
 <path fill="none" stroke="rgb(221,221,221)" stroke-linejoin="round" d="M 15188,5474 L 3053,5474"/>
 <path fill="none" stroke="rgb(221,221,221)" stroke-linejoin="round" d="M 15188,4794 L 3053,4794"/>
 <path fill="none" stroke="rgb(221,221,221)" stroke-linejoin="round" d="M 15188,4116 L 3053,4116"/>
 <path fill="none" stroke="rgb(221,221,221)" stroke-linejoin="round" d="M 15188,3436 L 3053,3436"/>
 <path fill="none" stroke="rgb(221,221,221)" stroke-linejoin="round" d="M 15188,2757 L 3053,2757"/>
 <path fill="none" stroke="rgb(221,221,221)" stroke-linejoin="round" d="M 15188,2078 L 3053,2078"/>
 <path fill="none" stroke="rgb(221,221,221)" stroke-linejoin="round" d="M 15188,1398 L 3053,1398"/>
 <path fill="none" stroke="rgb(221,221,221)" stroke-linejoin="round" d="M 15188,719 L 3053,719"/>
 <path fill="none" stroke="rgb(179,179,179)" stroke-linejoin="round" d="M 3053,6643 L 3053,6493"/>
 <path fill="none" stroke="rgb(179,179,179)" stroke-linejoin="round" d="M 3053,6643 L 3053,6493"/>
 <path fill="none" stroke="rgb(179,179,179)" stroke-linejoin="round" d="M 15188,6643 L 15188,6493"/>
 <path fill="none" stroke="rgb(179,179,179)" stroke-linejoin="round" d="M 15188,6643 L 15188,6493"/>
 <path fill="none" stroke="rgb(179,179,179)" stroke-linejoin="round" d="M 3053,6493 L 15188,6493"/>
 <path fill="none" stroke="rgb(179,179,179)" stroke-linejoin="round" d="M 2903,6493 L 3053,6493"/>
 <path fill="none" stroke="rgb(179,179,179)" stroke-linejoin="round" d="M 2903,6493 L 3053,6493"/>
 <path fill="none" stroke="rgb(179,179,179)" stroke-linejoin="round" d="M 2903,5813 L 3053,5813"/>
 <path fill="none" stroke="rgb(179,179,179)" stroke-linejoin="round" d="M 2903,5813 L 3053,5813"/>
 <path fill="none" stroke="rgb(179,179,179)" stroke-linejoin="round" d="M 2903,5134 L 3053,5134"/>
 <path fill="none" stroke="rgb(179,179,179)" stroke-linejoin="round" d="M 2903,5134 L 3053,5134"/>
 <path fill="none" stroke="rgb(179,179,179)" stroke-linejoin="round" d="M 2903,4455 L 3053,4455"/>
 <path fill="none" stroke="rgb(179,179,179)" stroke-linejoin="round" d="M 2903,4455 L 3053,4455"/>
 <path fill="none" stroke="rgb(179,179,179)" stroke-linejoin="round" d="M 2903,3776 L 3053,3776"/>
 <path fill="none" stroke="rgb(179,179,179)" stroke-linejoin="round" d="M 2903,3776 L 3053,3776"/>
 <path fill="none" stroke="rgb(179,179,179)" stroke-linejoin="round" d="M 2903,3097 L 3053,3097"/>
 <path fill="none" stroke="rgb(179,179,179)" stroke-linejoin="round" d="M 2903,3097 L 3053,3097"/>
 <path fill="none" stroke="rgb(179,179,179)" stroke-linejoin="round" d="M 2903,2417 L 3053,2417"/>
 <path fill="none" stroke="rgb(179,179,179)" stroke-linejoin="round" d="M 2903,2417 L 3053,2417"/>
 <path fill="none" stroke="rgb(179,179,179)" stroke-linejoin="round" d="M 2903,1738 L 3053,1738"/>
 <path fill="none" stroke="rgb(179,179,179)" stroke-linejoin="round" d="M 2903,1738 L 3053,1738"/>
 <path fill="none" stroke="rgb(179,179,179)" stroke-linejoin="round" d="M 2903,1059 L 3053,1059"/>
 <path fill="none" stroke="rgb(179,179,179)" stroke-linejoin="round" d="M 2903,1059 L 3053,1059"/>
 <path fill="none" stroke="rgb(179,179,179)" stroke-linejoin="round" d="M 2903,379 L 3053,379"/>
 <path fill="none" stroke="rgb(179,179,179)" stroke-linejoin="round" d="M 2903,379 L 3053,379"/>
 <path fill="none" stroke="rgb(179,179,179)" stroke-linejoin="round" d="M 3053,6493 L 3053,379"/>
 <path fill="rgb(51,153,255)" stroke="none" d="M 3576,6493 L 4622,6493 4622,4918 3576,4918 3576,6493 Z"/>
 <path fill="rgb(51,51,255)" stroke="none" d="M 4831,6493 L 5877,6493 5877,3115 4831,3115 4831,6493 Z"/>
 <path fill="rgb(0,69,134)" stroke="none" d="M 6087,6493 L 7133,6493 7133,3723 6087,3723 6087,6493 Z"/>
 <path fill="rgb(153,255,102)" stroke="none" d="M 7342,6493 L 8387,6493 8387,4056 7342,4056 7342,6493 Z"/>
 <path fill="rgb(0,153,0)" stroke="none" d="M 8596,6493 L 9643,6493 9643,2956 8596,2956 8596,6493 Z"/>
 <path fill="rgb(0,102,0)" stroke="none" d="M 9852,6493 L 10898,6493 10898,1811 9852,1811 9852,6493 Z"/>
 <path fill="rgb(255,51,0)" stroke="none" d="M 11107,6493 L 12154,6493 12154,4561 11107,4561 11107,6493 Z"/>
 <path fill="rgb(204,0,0)" stroke="none" d="M 12363,6493 L 13409,6493 13409,3424 12363,3424 12363,6493 Z"/>
 <path fill="rgb(153,0,0)" stroke="none" d="M 13618,6493 L 14664,6493 14664,1149 13618,1149 13618,6493 Z"/>
 <text class="TextShape"><tspan class="TextParagraph" font-family="Liberation Sans" font-size="353px" font-weight="400"><tspan class="TextPosition" x="1321" y="6614"/><tspan class="TextPosition" x="1321" y="6614"><tspan fill="rgb(0,0,0)" stroke="none">0.00E+00</tspan></tspan></tspan></text>
 <text class="TextShape"><tspan class="TextParagraph" font-family="Liberation Sans" font-size="353px" font-weight="400"><tspan class="TextPosition" x="1321" y="5934"/><tspan class="TextPosition" x="1321" y="5934"><tspan fill="rgb(0,0,0)" stroke="none">5.00E+06</tspan></tspan></tspan></text>
 <text class="TextShape"><tspan class="TextParagraph" font-family="Liberation Sans" font-size="353px" font-weight="400"><tspan class="TextPosition" x="1321" y="5255"/><tspan class="TextPosition" x="1321" y="5255"><tspan fill="rgb(0,0,0)" stroke="none">1.00E+07</tspan></tspan></tspan></text>
 <text class="TextShape"><tspan class="TextParagraph" font-family="Liberation Sans" font-size="353px" font-weight="400"><tspan class="TextPosition" x="1321" y="4575"/><tspan class="TextPosition" x="1321" y="4575"><tspan fill="rgb(0,0,0)" stroke="none">1.50E+07</tspan></tspan></tspan></text>
 <text class="TextShape"><tspan class="TextParagraph" font-family="Liberation Sans" font-size="353px" font-weight="400"><tspan class="TextPosition" x="1321" y="3896"/><tspan class="TextPosition" x="1321" y="3896"><tspan fill="rgb(0,0,0)" stroke="none">2.00E+07</tspan></tspan></tspan></text>
 <text class="TextShape"><tspan class="TextParagraph" font-family="Liberation Sans" font-size="353px" font-weight="400"><tspan class="TextPosition" x="1321" y="3217"/><tspan class="TextPosition" x="1321" y="3217"><tspan fill="rgb(0,0,0)" stroke="none">2.50E+07</tspan></tspan></tspan></text>
 <text class="TextShape"><tspan class="TextParagraph" font-family="Liberation Sans" font-size="353px" font-weight="400"><tspan class="TextPosition" x="1321" y="2537"/><tspan class="TextPosition" x="1321" y="2537"><tspan fill="rgb(0,0,0)" stroke="none">3.00E+07</tspan></tspan></tspan></text>
 <text class="TextShape"><tspan class="TextParagraph" font-family="Liberation Sans" font-size="353px" font-weight="400"><tspan class="TextPosition" x="1321" y="1858"/><tspan class="TextPosition" x="1321" y="1858"><tspan fill="rgb(0,0,0)" stroke="none">3.50E+07</tspan></tspan></tspan></text>
 <text class="TextShape"><tspan class="TextParagraph" font-family="Liberation Sans" font-size="353px" font-weight="400"><tspan class="TextPosition" x="1321" y="1179"/><tspan class="TextPosition" x="1321" y="1179"><tspan fill="rgb(0,0,0)" stroke="none">4.00E+07</tspan></tspan></tspan></text>
 <text class="TextShape"><tspan class="TextParagraph" font-family="Liberation Sans" font-size="353px" font-weight="400"><tspan class="TextPosition" x="1321" y="499"/><tspan class="TextPosition" x="1321" y="499"><tspan fill="rgb(0,0,0)" stroke="none">4.50E+07</tspan></tspan></tspan></text>
 <text class="TextShape"><tspan class="TextParagraph" font-family="Liberation Sans" font-size="353px" font-weight="400"><tspan class="TextPosition" x="3358" y="4740"/><tspan class="TextPosition" x="3358" y="4740"><tspan fill="rgb(0,0,0)" stroke="none">1.16E+07</tspan></tspan></tspan></text>
 <text class="TextShape"><tspan class="TextParagraph" font-family="Liberation Sans" font-size="353px" font-weight="400"><tspan class="TextPosition" x="4613" y="2937"/><tspan class="TextPosition" x="4613" y="2937"><tspan fill="rgb(0,0,0)" stroke="none">2.49E+07</tspan></tspan></tspan></text>
 <text class="TextShape"><tspan class="TextParagraph" font-family="Liberation Sans" font-size="353px" font-weight="400"><tspan class="TextPosition" x="5869" y="3545"/><tspan class="TextPosition" x="5869" y="3545"><tspan fill="rgb(0,0,0)" stroke="none">2.04E+07</tspan></tspan></tspan></text>
 <text class="TextShape"><tspan class="TextParagraph" font-family="Liberation Sans" font-size="353px" font-weight="400"><tspan class="TextPosition" x="7124" y="3878"/><tspan class="TextPosition" x="7124" y="3878"><tspan fill="rgb(0,0,0)" stroke="none">1.79E+07</tspan></tspan></tspan></text>
 <text class="TextShape"><tspan class="TextParagraph" font-family="Liberation Sans" font-size="353px" font-weight="400"><tspan class="TextPosition" x="8380" y="2778"/><tspan class="TextPosition" x="8380" y="2778"><tspan fill="rgb(0,0,0)" stroke="none">2.60E+07</tspan></tspan></tspan></text>
 <text class="TextShape"><tspan class="TextParagraph" font-family="Liberation Sans" font-size="353px" font-weight="400"><tspan class="TextPosition" x="9635" y="1633"/><tspan class="TextPosition" x="9635" y="1633"><tspan fill="rgb(0,0,0)" stroke="none">3.45E+07</tspan></tspan></tspan></text>
 <text class="TextShape"><tspan class="TextParagraph" font-family="Liberation Sans" font-size="353px" font-weight="400"><tspan class="TextPosition" x="10890" y="4383"/><tspan class="TextPosition" x="10890" y="4383"><tspan fill="rgb(0,0,0)" stroke="none">1.42E+07</tspan></tspan></tspan></text>
 <text class="TextShape"><tspan class="TextParagraph" font-family="Liberation Sans" font-size="353px" font-weight="400"><tspan class="TextPosition" x="12146" y="3246"/><tspan class="TextPosition" x="12146" y="3246"><tspan fill="rgb(0,0,0)" stroke="none">2.26E+07</tspan></tspan></tspan></text>
 <text class="TextShape"><tspan class="TextParagraph" font-family="Liberation Sans" font-size="353px" font-weight="400"><tspan class="TextPosition" x="13401" y="971"/><tspan class="TextPosition" x="13401" y="971"><tspan fill="rgb(0,0,0)" stroke="none">3.93E+07</tspan></tspan></tspan></text>
 <path fill="rgb(51,153,255)" stroke="none" d="M 2850,8260 L 2745,8260 2745,8049 2956,8049 2956,8260 2850,8260 Z"/>
 <path fill="rgb(51,51,255)" stroke="none" d="M 4824,8260 L 4719,8260 4719,8049 4930,8049 4930,8260 4824,8260 Z"/>
 <path fill="rgb(0,69,134)" stroke="none" d="M 6798,8260 L 6693,8260 6693,8049 6904,8049 6904,8260 6798,8260 Z"/>
 <path fill="rgb(153,255,102)" stroke="none" d="M 8957,8260 L 8851,8260 8851,8049 9062,8049 9062,8260 8957,8260 Z"/>
 <path fill="rgb(0,153,0)" stroke="none" d="M 11116,8260 L 11010,8260 11010,8049 11221,8049 11221,8260 11116,8260 Z"/>
 <path fill="rgb(0,102,0)" stroke="none" d="M 2850,8758 L 2745,8758 2745,8547 2956,8547 2956,8758 2850,8758 Z"/>
 <path fill="rgb(255,51,0)" stroke="none" d="M 4824,8758 L 4719,8758 4719,8547 4930,8547 4930,8758 4824,8758 Z"/>
 <path fill="rgb(204,0,0)" stroke="none" d="M 6798,8758 L 6693,8758 6693,8547 6904,8547 6904,8758 6798,8758 Z"/>
 <path fill="rgb(153,0,0)" stroke="none" d="M 8957,8758 L 8851,8758 8851,8547 9062,8547 9062,8758 8957,8758 Z"/>
 <text class="TextShape"><tspan class="TextParagraph" font-family="Liberation Sans" font-size="353px" font-weight="400"><tspan class="TextPosition" x="3056" y="8274"/><tspan class="TextPosition" x="3056" y="8274"><tspan fill="rgb(0,0,0)" stroke="none">48-12(1)</tspan></tspan></tspan></text>
 <text class="TextShape"><tspan class="TextParagraph" font-family="Liberation Sans" font-size="353px" font-weight="400"><tspan class="TextPosition" x="5030" y="8274"/><tspan class="TextPosition" x="5030" y="8274"><tspan fill="rgb(0,0,0)" stroke="none">100-12(1)</tspan></tspan></tspan></text>
 <text class="TextShape"><tspan class="TextParagraph" font-family="Liberation Sans" font-size="353px" font-weight="400"><tspan class="TextPosition" x="7004" y="8274"/><tspan class="TextPosition" x="7004" y="8274"><tspan fill="rgb(0,0,0)" stroke="none">200-12(1)</tspan></tspan></tspan></text>
 <text class="TextShape"><tspan class="TextParagraph" font-family="Liberation Sans" font-size="353px" font-weight="400"><tspan class="TextPosition" x="9162" y="8274"/><tspan class="TextPosition" x="9162" y="8274"><tspan fill="rgb(0,0,0)" stroke="none">48-12(6)</tspan></tspan></tspan></text>
 <text class="TextShape"><tspan class="TextParagraph" font-family="Liberation Sans" font-size="353px" font-weight="400"><tspan class="TextPosition" x="11321" y="8274"/><tspan class="TextPosition" x="11321" y="8274"><tspan fill="rgb(0,0,0)" stroke="none">100-12(6)</tspan></tspan></tspan></text>
 <text class="TextShape"><tspan class="TextParagraph" font-family="Liberation Sans" font-size="353px" font-weight="400"><tspan class="TextPosition" x="3056" y="8772"/><tspan class="TextPosition" x="3056" y="8772"><tspan fill="rgb(0,0,0)" stroke="none">200-12(6)</tspan></tspan></tspan></text>
 <text class="TextShape"><tspan class="TextParagraph" font-family="Liberation Sans" font-size="353px" font-weight="400"><tspan class="TextPosition" x="5030" y="8772"/><tspan class="TextPosition" x="5030" y="8772"><tspan fill="rgb(0,0,0)" stroke="none">48-12(12)</tspan></tspan></tspan></text>
 <text class="TextShape"><tspan class="TextParagraph" font-family="Liberation Sans" font-size="353px" font-weight="400"><tspan class="TextPosition" x="7004" y="8772"/><tspan class="TextPosition" x="7004" y="8772"><tspan fill="rgb(0,0,0)" stroke="none">100-12(12)</tspan></tspan></tspan></text>
 <text class="TextShape"><tspan class="TextParagraph" font-family="Liberation Sans" font-size="353px" font-weight="400"><tspan class="TextPosition" x="9162" y="8772"/><tspan class="TextPosition" x="9162" y="8772"><tspan fill="rgb(0,0,0)" stroke="none">200-12(12)</tspan></tspan></tspan></text>
 <text class="TextShape"><tspan class="TextParagraph" font-family="Liberation Sans" font-size="318px" font-weight="400"><tspan class="TextPosition" x="7963" y="7262"/><tspan class="TextPosition" x="7963" y="7262"><tspan fill="rgb(0,0,0)" stroke="none">Test</tspan></tspan></tspan></text>
 <text class="TextShape" transform="translate(837,3768) rotate(-90) translate(-837,-3768)"><tspan class="TextParagraph" font-family="Liberation Sans" font-size="318px" font-weight="400"><tspan class="TextPosition" x="837" y="3768"/><tspan class="TextPosition" x="837" y="3768"><tspan fill="rgb(0,0,0)" stroke="none">MSE</tspan></tspan></tspan></text>
</svg>